<?xml version="1.0" encoding="iso-8859-1"?>
<!-- Generator: Adobe Illustrator 27.8.1, SVG Export Plug-In . SVG Version: 6.00 Build 0)  -->
<svg version="1.1" id="Layer_1" xmlns="http://www.w3.org/2000/svg" xmlns:xlink="http://www.w3.org/1999/xlink" x="0px" y="0px"
	 viewBox="0 0 48.7 46.22" style="enable-background:new 0 0 48.7 46.22;" xml:space="preserve">
<style type="text/css">
	.st0{fill:#5E9496;}
	.st1{fill:none;stroke:#5E9496;stroke-width:2.5;}
	.st2{fill:#A7CDCB;}
	.st3{fill-rule:evenodd;clip-rule:evenodd;fill:#FFFFFF;}
</style>
<g id="Group_49" transform="translate(-208.989 -240.776)">
	<g id="Rectangle_9" transform="translate(208.989 244.078)">
		<path class="st0" d="M10,0h27.05c5.52,0,10,4.48,10,10v22.92c0,5.52-4.48,10-10,10H10c-5.52,0-10-4.48-10-10V10
			C0,4.48,4.48,0,10,0z"/>
		<path class="st1" d="M10,1.25h27.05c4.83,0,8.75,3.92,8.75,8.75v22.92c0,4.83-3.92,8.75-8.75,8.75H10c-4.83,0-8.75-3.92-8.75-8.75
			V10C1.25,5.17,5.17,1.25,10,1.25z"/>
	</g>
	<g id="Rectangle_10" transform="translate(212.291 240.776)">
		<path class="st2" d="M10,0h25.4c5.52,0,10,4.48,10,10v22.1c0,5.52-4.48,10-10,10H10c-5.52,0-10-4.48-10-10V10C0,4.48,4.48,0,10,0z
			"/>
		<path class="st1" d="M10,1.25h25.4c4.83,0,8.75,3.92,8.75,8.75v22.1c0,4.83-3.92,8.75-8.75,8.75H10c-4.83,0-8.75-3.92-8.75-8.75
			V10C1.25,5.17,5.17,1.25,10,1.25z"/>
	</g>
	<g id="Facebook" transform="translate(228.128 247.525)">
		<path id="Path_1" class="st3" d="M9.67,28.52V15.53h4.43l0.63-5.07H9.67V7.29c0-1.43,0.47-2.54,2.54-2.54h2.69v-4.6
			C14.26,0.16,12.68,0,10.93,0c-3.8,0-6.5,2.38-6.5,6.66v3.8H0v5.07h4.44v13H9.67z"/>
	</g>
</g>
</svg>
