<?xml version="1.0" encoding="iso-8859-1"?>
<!-- Generator: Adobe Illustrator 27.8.1, SVG Export Plug-In . SVG Version: 6.00 Build 0)  -->
<svg version="1.1" id="Layer_1" xmlns="http://www.w3.org/2000/svg" xmlns:xlink="http://www.w3.org/1999/xlink" x="0px" y="0px"
	 viewBox="0 0 47.57 46.56" style="enable-background:new 0 0 47.57 46.56;" xml:space="preserve">
<style type="text/css">
	.st0{fill:#75704D;}
	.st1{fill:none;stroke:#75704E;stroke-width:2.5;}
	.st2{fill:#C0BCA0;}
	.st3{fill-rule:evenodd;clip-rule:evenodd;fill:#FFFFFF;}
</style>
<g id="Group_22" transform="translate(-2.631)">
	<g id="Rectangle_1126" transform="translate(2.631 4)">
		<path class="st0" d="M10,0h24.57c5.52,0,10,4.48,10,10v22.1c0,5.52-4.48,10-10,10H10c-5.52,0-10-4.48-10-10V10C0,4.48,4.48,0,10,0
			z"/>
		<path class="st1" d="M10,1.25h24.57c4.83,0,8.75,3.92,8.75,8.75v22.1c0,4.83-3.92,8.75-8.75,8.75H10c-4.83,0-8.75-3.92-8.75-8.75
			V10C1.25,5.17,5.17,1.25,10,1.25z"/>
	</g>
	<g id="Rectangle_8" transform="translate(5.631)">
		<path class="st2" d="M10,0h24.57c5.52,0,10,4.48,10,10v22.1c0,5.52-4.48,10-10,10H10c-5.52,0-10-4.48-10-10V10C0,4.48,4.48,0,10,0
			z"/>
		<path class="st1" d="M10,1.25h24.57c4.83,0,8.75,3.92,8.75,8.75v22.1c0,4.83-3.92,8.75-8.75,8.75H10c-4.83,0-8.75-3.92-8.75-8.75
			V10C1.25,5.17,5.17,1.25,10,1.25z"/>
	</g>
	<path id="Path_1" class="st3" d="M27.63,9.28c1.9-0.07,3.81-0.02,5.7,0.16c0.92-0.01,1.83,0.15,2.69,0.47
		c1.19,0.55,2.14,1.51,2.69,2.69c0.33,0.86,0.49,1.77,0.48,2.69c0,1.43,0.16,1.9,0.16,5.7c0.07,1.9,0.02,3.81-0.16,5.7
		c0.01,0.92-0.15,1.83-0.48,2.69c-0.55,1.19-1.51,2.14-2.69,2.69c-0.86,0.33-1.77,0.49-2.69,0.48c-1.43,0-1.9,0.16-5.7,0.16
		c-1.9,0.07-3.81,0.02-5.7-0.16c-0.92,0.01-1.83-0.15-2.69-0.48c-1.19-0.55-2.14-1.51-2.69-2.69c-0.33-0.86-0.49-1.77-0.48-2.69
		c0-1.43-0.16-1.9-0.16-5.7c-0.07-1.9-0.02-3.81,0.16-5.7c-0.01-0.92,0.15-1.83,0.48-2.69c0.28-0.59,0.65-1.12,1.1-1.58
		c0.37-0.55,0.94-0.95,1.59-1.11c0.86-0.33,1.77-0.49,2.69-0.48C23.82,9.27,25.73,9.21,27.63,9.28 M27.63,6.75
		c-1.95-0.07-3.91-0.02-5.86,0.16c-1.19,0-2.37,0.21-3.49,0.63c-0.96,0.31-1.83,0.86-2.53,1.59c-0.73,0.7-1.27,1.57-1.59,2.53
		c-0.5,1.09-0.72,2.29-0.63,3.49c-0.18,1.95-0.23,3.91-0.16,5.86c-0.07,1.96-0.02,3.91,0.16,5.86c0,1.19,0.21,2.37,0.63,3.49
		c0.31,0.96,0.86,1.83,1.59,2.53c0.7,0.73,1.57,1.27,2.53,1.58c1.11,0.42,2.3,0.64,3.49,0.63c1.95,0.18,3.91,0.23,5.86,0.16
		c1.96,0.07,3.91,0.02,5.86-0.16c1.19,0,2.37-0.21,3.49-0.63c1.93-0.67,3.45-2.19,4.12-4.12c0.42-1.11,0.64-2.3,0.63-3.49
		c0-1.58,0.16-2.06,0.16-5.86c0.07-1.96,0.02-3.91-0.16-5.86c0-1.19-0.21-2.37-0.63-3.49c-0.31-0.96-0.86-1.83-1.58-2.54
		c-0.7-0.73-1.57-1.27-2.53-1.59c-1.11-0.42-2.3-0.64-3.49-0.63C31.54,6.73,29.59,6.68,27.63,6.75 M27.63,13.72
		c-3.96-0.07-7.22,3.09-7.29,7.05c0,0.08,0,0.16,0,0.24c0,4.03,3.26,7.29,7.29,7.29s7.29-3.26,7.29-7.29S31.66,13.72,27.63,13.72
		 M27.63,25.76c-2.58,0.05-4.71-2-4.75-4.58c0-0.06,0-0.11,0-0.17c-0.05-2.58,2-4.71,4.58-4.75c0.06,0,0.11,0,0.17,0
		c2.58-0.05,4.71,2,4.75,4.58c0,0.06,0,0.11,0,0.17c0.05,2.58-2,4.71-4.58,4.75C27.75,25.77,27.69,25.77,27.63,25.76 M35.24,11.66
		c-0.96,0-1.74,0.78-1.74,1.74s0.78,1.74,1.74,1.74c0.96,0,1.74-0.78,1.74-1.74c0,0,0,0,0,0C36.97,12.44,36.2,11.67,35.24,11.66"/>
</g>
</svg>
