<?xml version="1.0" encoding="iso-8859-1"?>
<!-- Generator: Adobe Illustrator 27.8.1, SVG Export Plug-In . SVG Version: 6.00 Build 0)  -->
<svg version="1.1" id="Layer_1" xmlns="http://www.w3.org/2000/svg" xmlns:xlink="http://www.w3.org/1999/xlink" x="0px" y="0px"
	 viewBox="0 0 69.83 37.47" style="enable-background:new 0 0 69.83 37.47;" xml:space="preserve">
<style type="text/css">
	.st0{fill:#C9CC8F;}
	.st1{fill:#CBCC8F;}
</style>
<path id="Icon_awesome-camera-retro" class="st0" d="M31.01,0C28.8,0,27,1.8,27,4.02v29.44c0,2.22,1.8,4.01,4.01,4.01h34.8
	c2.22,0,4.01-1.8,4.01-4.01V4.02c0-2.22-1.8-4.02-4.02-4.02c0,0,0,0,0,0H31.01z M31.01,2.68h8.87c0.28,0,0.5,0.22,0.5,0.5v1.67
	c0,0.28-0.22,0.5-0.5,0.5h-9.7c-0.28,0-0.5-0.22-0.5-0.5V4.02C29.68,3.28,30.28,2.68,31.01,2.68z M66.65,10.71H30.18
	c-0.28,0-0.5-0.22-0.5-0.5V7.19c0-0.28,0.22-0.5,0.5-0.5h11.54l2.53-3.79c0.09-0.14,0.25-0.23,0.42-0.23h21.15
	c0.74,0,1.34,0.6,1.34,1.34v6.19C67.15,10.48,66.93,10.71,66.65,10.71C66.65,10.71,66.65,10.71,66.65,10.71L66.65,10.71z
	 M48.41,32.79c-5.54,0-10.04-4.49-10.04-10.04c0-5.54,4.49-10.04,10.04-10.04c5.54,0,10.04,4.49,10.04,10.04
	C58.45,28.29,53.95,32.78,48.41,32.79z M48.41,15.39c-4.07,0-7.36,3.3-7.36,7.36s3.3,7.36,7.36,7.36c4.06,0,7.36-3.3,7.36-7.36
	C55.77,18.69,52.48,15.4,48.41,15.39L48.41,15.39z M44.4,24.09c-0.74,0-1.34-0.6-1.34-1.34c0-2.96,2.4-5.35,5.35-5.35
	c0.74,0,1.34,0.6,1.34,1.34c0,0.74-0.6,1.34-1.34,1.34c-1.48,0-2.67,1.2-2.68,2.68C45.73,23.49,45.14,24.09,44.4,24.09L44.4,24.09z"
	/>
<g id="Polygon_1" transform="translate(14 26.626) rotate(180)">
	<path class="st0" d="M13.13,11.5H0.87L7,0.99L13.13,11.5z"/>
	<path class="st1" d="M7,1.98L1.74,11h10.52L7,1.98 M7,0l7,12H0L7,0z"/>
</g>
</svg>
