<?xml version="1.0" encoding="iso-8859-1"?>
<!-- Generator: Adobe Illustrator 27.8.1, SVG Export Plug-In . SVG Version: 6.00 Build 0)  -->
<svg version="1.1" id="Layer_1" xmlns="http://www.w3.org/2000/svg" xmlns:xlink="http://www.w3.org/1999/xlink" x="0px" y="0px"
	 viewBox="0 0 49.53 46.22" style="enable-background:new 0 0 49.53 46.22;" xml:space="preserve">
<style type="text/css">
	.st0{fill:#54696E;}
	.st1{fill:none;stroke:#55696E;stroke-width:2.5;}
	.st2{fill:#8AA6A9;}
	.st3{fill:none;stroke:#54696E;stroke-width:2.5;}
	.st4{fill-rule:evenodd;clip-rule:evenodd;fill:#FFFFFF;}
</style>
<g id="Rectangle_11" transform="translate(0 3.302)">
	<path class="st0" d="M10,0h27.05c5.52,0,10,4.48,10,10v22.92c0,5.52-4.48,10-10,10H10c-5.52,0-10-4.48-10-10V10C0,4.48,4.48,0,10,0
		z"/>
	<path class="st1" d="M10,1.25h27.05c4.83,0,8.75,3.92,8.75,8.75v22.92c0,4.83-3.92,8.75-8.75,8.75H10c-4.83,0-8.75-3.92-8.75-8.75
		V10C1.25,5.17,5.17,1.25,10,1.25z"/>
</g>
<g id="Rectangle_12" transform="translate(3.302)">
	<path class="st2" d="M10,0h26.22c5.52,0,10,4.48,10,10v22.1c0,5.52-4.48,10-10,10H10c-5.52,0-10-4.48-10-10V10C0,4.48,4.48,0,10,0z
		"/>
	<path class="st3" d="M10,1.25h26.22c4.83,0,8.75,3.92,8.75,8.75v22.1c0,4.83-3.92,8.75-8.75,8.75H10c-4.83,0-8.75-3.92-8.75-8.75
		V10C1.25,5.17,5.17,1.25,10,1.25z"/>
</g>
<g id="Twitter" transform="translate(11.752 9.421)">
	<path id="Path_2" class="st4" d="M9.03,23.14c10.77,0,16.64-8.87,16.64-16.64V5.7c1.11-0.84,2.07-1.86,2.85-3.01
		c-1.06,0.46-2.18,0.78-3.33,0.95c1.18-0.74,2.07-1.85,2.54-3.17c-1.15,0.64-2.37,1.12-3.65,1.43C23,0.68,21.44-0.01,19.81,0
		c-3.22,0.05-5.81,2.65-5.86,5.86c-0.04,0.43,0.02,0.86,0.16,1.27C9.38,6.9,5,4.65,2.06,0.95C1.54,1.87,1.27,2.91,1.27,3.96
		C1.31,5.9,2.24,7.71,3.8,8.87C2.85,8.85,1.92,8.58,1.11,8.08l0,0c0,2.8,2,5.2,4.75,5.7c-0.52,0.14-1.05,0.19-1.58,0.16
		c-0.38,0.03-0.75-0.03-1.11-0.16c0.79,2.41,3.01,4.06,5.55,4.12c-2.08,1.63-4.65,2.52-7.29,2.53C0.94,20.46,0.46,20.41,0,20.28
		C2.62,22.19,5.79,23.19,9.03,23.14"/>
</g>
</svg>
